<mxfile host="drawio-plugin" modified="2022-08-04T08:49:22.690Z" agent="5.0 (X11; Linux x86_64) AppleWebKit/537.36 (KHTML, like Gecko) Chrome/98.0.4758.102 Safari/537.36" etag="ihVZDN8RBGatf6PlpdBH" version="15.5.4" type="embed" pages="2"><diagram id="S3GhHxyuLjVFzFILbFPm" name="current"><mxGraphModel dx="898" dy="750" grid="1" gridSize="10" guides="1" tooltips="1" connect="1" arrows="1" fold="1" page="1" pageScale="1" pageWidth="850" pageHeight="1100" math="0" shadow="0"><root><mxCell id="0"/><mxCell id="1" parent="0"/><mxCell id="6sqd208aEAm2AJhOtNgs-43" value="External resources" style="swimlane;strokeWidth=2;fontSize=17;fillColor=#f8cecc;strokeColor=#b85450;" parent="1" vertex="1"><mxGeometry x="620" y="40" width="260" height="160" as="geometry"/></mxCell><mxCell id="6sqd208aEAm2AJhOtNgs-44" value="&lt;p&gt;&lt;font style=&quot;font-size: 17px&quot;&gt;&lt;b&gt;External resource:&lt;/b&gt;&lt;/font&gt;&lt;/p&gt;&lt;p&gt;&lt;font style=&quot;font-size: 17px&quot;&gt;&lt;b&gt;page 1&lt;/b&gt;&lt;/font&gt;&lt;/p&gt;" style="rounded=0;whiteSpace=wrap;html=1;strokeWidth=2;" parent="6sqd208aEAm2AJhOtNgs-43" vertex="1"><mxGeometry x="20" y="40" width="200" height="80" as="geometry"/></mxCell><mxCell id="6sqd208aEAm2AJhOtNgs-45" value="&lt;p&gt;&lt;font style=&quot;font-size: 17px&quot;&gt;&lt;b&gt;External resource:&lt;/b&gt;&lt;/font&gt;&lt;/p&gt;&lt;p&gt;&lt;font style=&quot;font-size: 17px&quot;&gt;&lt;b&gt;page 1&lt;/b&gt;&lt;/font&gt;&lt;/p&gt;" style="rounded=0;whiteSpace=wrap;html=1;strokeWidth=2;" parent="1" vertex="1"><mxGeometry x="650" y="90" width="200" height="80" as="geometry"/></mxCell><mxCell id="6sqd208aEAm2AJhOtNgs-46" value="&lt;p&gt;&lt;font style=&quot;font-size: 17px&quot;&gt;&lt;b&gt;External resource:&lt;/b&gt;&lt;/font&gt;&lt;/p&gt;&lt;p&gt;&lt;font style=&quot;font-size: 17px&quot;&gt;&lt;b&gt;page 1&lt;/b&gt;&lt;/font&gt;&lt;/p&gt;" style="rounded=0;whiteSpace=wrap;html=1;strokeWidth=2;" parent="1" vertex="1"><mxGeometry x="660" y="100" width="200" height="80" as="geometry"/></mxCell><mxCell id="6sqd208aEAm2AJhOtNgs-52" style="edgeStyle=orthogonalEdgeStyle;rounded=0;orthogonalLoop=1;jettySize=auto;html=1;exitX=1;exitY=0.5;exitDx=0;exitDy=0;entryX=0;entryY=0.5;entryDx=0;entryDy=0;strokeWidth=2;" parent="1" source="6sqd208aEAm2AJhOtNgs-47" target="6sqd208aEAm2AJhOtNgs-43" edge="1"><mxGeometry relative="1" as="geometry"/></mxCell><mxCell id="6sqd208aEAm2AJhOtNgs-53" style="edgeStyle=orthogonalEdgeStyle;rounded=0;orthogonalLoop=1;jettySize=auto;html=1;exitX=0.5;exitY=1;exitDx=0;exitDy=0;strokeWidth=2;" parent="1" source="6sqd208aEAm2AJhOtNgs-47" edge="1"><mxGeometry relative="1" as="geometry"><mxPoint x="390" y="200" as="targetPoint"/></mxGeometry></mxCell><mxCell id="6sqd208aEAm2AJhOtNgs-47" value="&lt;p&gt;&lt;span style=&quot;font-size: 17px&quot;&gt;&lt;b&gt;interview-content-parser&lt;/b&gt;&lt;/span&gt;&lt;/p&gt;" style="rounded=0;whiteSpace=wrap;html=1;strokeWidth=2;fillColor=#f5f5f5;fontColor=#333333;strokeColor=#666666;" parent="1" vertex="1"><mxGeometry x="280" y="80" width="220" height="80" as="geometry"/></mxCell><mxCell id="6sqd208aEAm2AJhOtNgs-49" style="edgeStyle=orthogonalEdgeStyle;rounded=0;orthogonalLoop=1;jettySize=auto;html=1;exitX=0.9;exitY=0.5;exitDx=0;exitDy=0;entryX=0;entryY=0.5;entryDx=0;entryDy=0;strokeWidth=2;exitPerimeter=0;" parent="1" source="6sqd208aEAm2AJhOtNgs-48" target="6sqd208aEAm2AJhOtNgs-47" edge="1"><mxGeometry relative="1" as="geometry"/></mxCell><mxCell id="6sqd208aEAm2AJhOtNgs-48" value="admin" style="shape=actor;whiteSpace=wrap;html=1;fontSize=17;strokeWidth=2;" parent="1" vertex="1"><mxGeometry x="40" y="60" width="80" height="120" as="geometry"/></mxCell><mxCell id="6sqd208aEAm2AJhOtNgs-56" value="Internal resources" style="swimlane;strokeWidth=2;fontSize=17;fillColor=#d5e8d4;strokeColor=#82b366;" parent="1" vertex="1"><mxGeometry x="260" y="200" width="260" height="160" as="geometry"/></mxCell><mxCell id="6sqd208aEAm2AJhOtNgs-57" value="&lt;p&gt;&lt;font style=&quot;font-size: 17px&quot;&gt;&lt;b&gt;External resource:&lt;/b&gt;&lt;/font&gt;&lt;/p&gt;&lt;p&gt;&lt;font style=&quot;font-size: 17px&quot;&gt;&lt;b&gt;page 1&lt;/b&gt;&lt;/font&gt;&lt;/p&gt;" style="rounded=0;whiteSpace=wrap;html=1;strokeWidth=2;" parent="6sqd208aEAm2AJhOtNgs-56" vertex="1"><mxGeometry x="20" y="40" width="200" height="80" as="geometry"/></mxCell><mxCell id="6sqd208aEAm2AJhOtNgs-58" value="&lt;p&gt;&lt;font style=&quot;font-size: 17px&quot;&gt;&lt;b&gt;External resource:&lt;/b&gt;&lt;/font&gt;&lt;/p&gt;&lt;p&gt;&lt;font style=&quot;font-size: 17px&quot;&gt;&lt;b&gt;page 1&lt;/b&gt;&lt;/font&gt;&lt;/p&gt;" style="rounded=0;whiteSpace=wrap;html=1;strokeWidth=2;" parent="6sqd208aEAm2AJhOtNgs-56" vertex="1"><mxGeometry x="30" y="50" width="200" height="80" as="geometry"/></mxCell><mxCell id="6sqd208aEAm2AJhOtNgs-59" value="&lt;p&gt;&lt;font style=&quot;font-size: 17px&quot;&gt;&lt;b&gt;Internal resource:&lt;/b&gt;&lt;/font&gt;&lt;/p&gt;&lt;p&gt;&lt;span style=&quot;font-size: 17px;&quot;&gt;&lt;b&gt;.csv, .adoc&lt;/b&gt;&lt;/span&gt;&lt;/p&gt;" style="rounded=0;whiteSpace=wrap;html=1;strokeWidth=2;" parent="6sqd208aEAm2AJhOtNgs-56" vertex="1"><mxGeometry x="40" y="60" width="200" height="80" as="geometry"/></mxCell><mxCell id="6sqd208aEAm2AJhOtNgs-64" style="edgeStyle=orthogonalEdgeStyle;rounded=0;orthogonalLoop=1;jettySize=auto;html=1;exitX=1;exitY=0.5;exitDx=0;exitDy=0;entryX=0;entryY=0.5;entryDx=0;entryDy=0;strokeWidth=2;" parent="1" source="6sqd208aEAm2AJhOtNgs-66" edge="1"><mxGeometry relative="1" as="geometry"><mxPoint x="620" y="480" as="targetPoint"/></mxGeometry></mxCell><mxCell id="6sqd208aEAm2AJhOtNgs-65" style="edgeStyle=orthogonalEdgeStyle;rounded=0;orthogonalLoop=1;jettySize=auto;html=1;exitX=0.5;exitY=1;exitDx=0;exitDy=0;strokeWidth=2;" parent="1" source="6sqd208aEAm2AJhOtNgs-66" edge="1"><mxGeometry relative="1" as="geometry"><mxPoint x="390" y="560" as="targetPoint"/></mxGeometry></mxCell><mxCell id="6sqd208aEAm2AJhOtNgs-66" value="&lt;span style=&quot;font-size: 17px;&quot;&gt;&lt;b&gt;interview-data-migration&lt;/b&gt;&lt;/span&gt;&lt;span style=&quot;font-size: 17px;&quot;&gt;&lt;b&gt;&lt;br&gt;&lt;/b&gt;&lt;/span&gt;" style="rounded=0;whiteSpace=wrap;html=1;strokeWidth=2;fillColor=#f5f5f5;fontColor=#333333;strokeColor=#666666;" parent="1" vertex="1"><mxGeometry x="280" y="440" width="220" height="80" as="geometry"/></mxCell><mxCell id="6sqd208aEAm2AJhOtNgs-68" value="admin" style="shape=actor;whiteSpace=wrap;html=1;fontSize=17;strokeWidth=2;" parent="1" vertex="1"><mxGeometry x="40" y="420" width="80" height="120" as="geometry"/></mxCell><mxCell id="6sqd208aEAm2AJhOtNgs-69" value="Internal resources" style="swimlane;strokeWidth=2;fontSize=17;fillColor=#f8cecc;strokeColor=#b85450;" parent="1" vertex="1"><mxGeometry x="620" y="400" width="260" height="160" as="geometry"/></mxCell><mxCell id="6sqd208aEAm2AJhOtNgs-70" value="&lt;p&gt;&lt;font style=&quot;font-size: 17px&quot;&gt;&lt;b&gt;External resource:&lt;/b&gt;&lt;/font&gt;&lt;/p&gt;&lt;p&gt;&lt;font style=&quot;font-size: 17px&quot;&gt;&lt;b&gt;page 1&lt;/b&gt;&lt;/font&gt;&lt;/p&gt;" style="rounded=0;whiteSpace=wrap;html=1;strokeWidth=2;" parent="6sqd208aEAm2AJhOtNgs-69" vertex="1"><mxGeometry x="20" y="40" width="200" height="80" as="geometry"/></mxCell><mxCell id="6sqd208aEAm2AJhOtNgs-71" value="&lt;p&gt;&lt;font style=&quot;font-size: 17px&quot;&gt;&lt;b&gt;External resource:&lt;/b&gt;&lt;/font&gt;&lt;/p&gt;&lt;p&gt;&lt;font style=&quot;font-size: 17px&quot;&gt;&lt;b&gt;page 1&lt;/b&gt;&lt;/font&gt;&lt;/p&gt;" style="rounded=0;whiteSpace=wrap;html=1;strokeWidth=2;" parent="6sqd208aEAm2AJhOtNgs-69" vertex="1"><mxGeometry x="30" y="50" width="200" height="80" as="geometry"/></mxCell><mxCell id="6sqd208aEAm2AJhOtNgs-72" value="&lt;p&gt;&lt;font style=&quot;font-size: 17px&quot;&gt;&lt;b&gt;Internal resource:&lt;/b&gt;&lt;/font&gt;&lt;/p&gt;&lt;p&gt;&lt;span style=&quot;font-size: 17px;&quot;&gt;&lt;b&gt;.csv&lt;/b&gt;&lt;/span&gt;&lt;/p&gt;" style="rounded=0;whiteSpace=wrap;html=1;strokeWidth=2;" parent="6sqd208aEAm2AJhOtNgs-69" vertex="1"><mxGeometry x="40" y="60" width="200" height="80" as="geometry"/></mxCell><mxCell id="6sqd208aEAm2AJhOtNgs-73" value="&lt;b&gt;DB&lt;/b&gt;" style="shape=cylinder3;whiteSpace=wrap;html=1;boundedLbl=1;backgroundOutline=1;size=15;fontSize=17;strokeWidth=2;fillColor=#d5e8d4;strokeColor=#82b366;" parent="1" vertex="1"><mxGeometry x="360" y="560" width="60" height="80" as="geometry"/></mxCell><mxCell id="6sqd208aEAm2AJhOtNgs-76" value="&lt;span style=&quot;font-size: 17px;&quot;&gt;&lt;b&gt;interview-helper&lt;/b&gt;&lt;/span&gt;&lt;span style=&quot;font-size: 17px;&quot;&gt;&lt;b&gt;&lt;br&gt;&lt;/b&gt;&lt;/span&gt;" style="rounded=0;whiteSpace=wrap;html=1;strokeWidth=2;fillColor=#dae8fc;strokeColor=#6c8ebf;" parent="1" vertex="1"><mxGeometry x="280" y="700" width="220" height="80" as="geometry"/></mxCell><mxCell id="6sqd208aEAm2AJhOtNgs-77" style="edgeStyle=orthogonalEdgeStyle;rounded=0;orthogonalLoop=1;jettySize=auto;html=1;exitX=0.9;exitY=0.5;exitDx=0;exitDy=0;entryX=0;entryY=0.5;entryDx=0;entryDy=0;strokeWidth=2;exitPerimeter=0;" parent="1" source="6sqd208aEAm2AJhOtNgs-68" target="6sqd208aEAm2AJhOtNgs-66" edge="1"><mxGeometry relative="1" as="geometry"/></mxCell><mxCell id="6sqd208aEAm2AJhOtNgs-104" style="edgeStyle=orthogonalEdgeStyle;rounded=0;orthogonalLoop=1;jettySize=auto;html=1;entryX=0;entryY=0.5;entryDx=0;entryDy=0;strokeWidth=2;" parent="1" target="6sqd208aEAm2AJhOtNgs-76" edge="1"><mxGeometry relative="1" as="geometry"><mxPoint x="110" y="740" as="sourcePoint"/></mxGeometry></mxCell><mxCell id="6sqd208aEAm2AJhOtNgs-78" value="user" style="shape=actor;whiteSpace=wrap;html=1;fontSize=17;strokeWidth=2;" parent="1" vertex="1"><mxGeometry x="40" y="680" width="80" height="120" as="geometry"/></mxCell><mxCell id="6sqd208aEAm2AJhOtNgs-83" value="&lt;b&gt;DB&lt;/b&gt;" style="shape=cylinder3;whiteSpace=wrap;html=1;boundedLbl=1;backgroundOutline=1;size=15;fontSize=17;strokeWidth=2;" parent="1" vertex="1"><mxGeometry x="470" y="750" width="60" height="80" as="geometry"/></mxCell><mxCell id="6sqd208aEAm2AJhOtNgs-100" value="&lt;span style=&quot;font-size: 17px;&quot;&gt;&lt;b&gt;interview-telegram-bot&lt;/b&gt;&lt;/span&gt;" style="rounded=0;whiteSpace=wrap;html=1;strokeWidth=2;fillColor=#e1d5e7;strokeColor=#9673a6;" parent="1" vertex="1"><mxGeometry x="280" y="900" width="220" height="80" as="geometry"/></mxCell><mxCell id="6sqd208aEAm2AJhOtNgs-101" value="user" style="shape=actor;whiteSpace=wrap;html=1;fontSize=17;strokeWidth=2;" parent="1" vertex="1"><mxGeometry x="40" y="880" width="80" height="120" as="geometry"/></mxCell><mxCell id="6sqd208aEAm2AJhOtNgs-103" style="edgeStyle=orthogonalEdgeStyle;rounded=0;orthogonalLoop=1;jettySize=auto;html=1;exitX=0.9;exitY=0.5;exitDx=0;exitDy=0;entryX=0;entryY=0.5;entryDx=0;entryDy=0;strokeWidth=2;exitPerimeter=0;" parent="1" source="6sqd208aEAm2AJhOtNgs-101" target="6sqd208aEAm2AJhOtNgs-100" edge="1"><mxGeometry relative="1" as="geometry"/></mxCell></root></mxGraphModel></diagram><diagram name="future" id="bwKxxpGNUVHhIjONayEd"><mxGraphModel dx="898" dy="406" grid="1" gridSize="10" guides="1" tooltips="1" connect="1" arrows="1" fold="1" page="1" pageScale="1" pageWidth="850" pageHeight="1100" math="0" shadow="0"><root><mxCell id="fYQJ-SwcIMSNfxXUZHLS-0"/><mxCell id="fYQJ-SwcIMSNfxXUZHLS-1" parent="fYQJ-SwcIMSNfxXUZHLS-0"/><mxCell id="fYQJ-SwcIMSNfxXUZHLS-29" value="&lt;span style=&quot;font-size: 17px;&quot;&gt;&lt;b&gt;interview-helper-api&lt;/b&gt;&lt;/span&gt;&lt;span style=&quot;font-size: 17px;&quot;&gt;&lt;b&gt;&lt;br&gt;&lt;/b&gt;&lt;/span&gt;" style="rounded=0;whiteSpace=wrap;html=1;strokeWidth=2;fillColor=#dae8fc;strokeColor=#6c8ebf;" vertex="1" parent="fYQJ-SwcIMSNfxXUZHLS-1"><mxGeometry x="680" y="90" width="220" height="80" as="geometry"/></mxCell><mxCell id="fYQJ-SwcIMSNfxXUZHLS-30" style="edgeStyle=orthogonalEdgeStyle;rounded=0;orthogonalLoop=1;jettySize=auto;html=1;exitX=0.9;exitY=0.5;exitDx=0;exitDy=0;exitPerimeter=0;entryX=0;entryY=0.5;entryDx=0;entryDy=0;strokeWidth=2;" edge="1" parent="fYQJ-SwcIMSNfxXUZHLS-1" source="fYQJ-SwcIMSNfxXUZHLS-32" target="fYQJ-SwcIMSNfxXUZHLS-40"><mxGeometry relative="1" as="geometry"/></mxCell><mxCell id="fYQJ-SwcIMSNfxXUZHLS-31" style="edgeStyle=orthogonalEdgeStyle;rounded=0;orthogonalLoop=1;jettySize=auto;html=1;exitX=0.9;exitY=0.5;exitDx=0;exitDy=0;exitPerimeter=0;entryX=0;entryY=0.5;entryDx=0;entryDy=0;strokeWidth=2;" edge="1" parent="fYQJ-SwcIMSNfxXUZHLS-1" source="fYQJ-SwcIMSNfxXUZHLS-32" target="fYQJ-SwcIMSNfxXUZHLS-41"><mxGeometry relative="1" as="geometry"/></mxCell><mxCell id="fYQJ-SwcIMSNfxXUZHLS-32" value="user" style="shape=actor;whiteSpace=wrap;html=1;fontSize=17;strokeWidth=2;" vertex="1" parent="fYQJ-SwcIMSNfxXUZHLS-1"><mxGeometry x="40" y="70" width="80" height="120" as="geometry"/></mxCell><mxCell id="fYQJ-SwcIMSNfxXUZHLS-33" value="&lt;b&gt;DB&lt;/b&gt;" style="shape=cylinder3;whiteSpace=wrap;html=1;boundedLbl=1;backgroundOutline=1;size=15;fontSize=17;strokeWidth=2;" vertex="1" parent="fYQJ-SwcIMSNfxXUZHLS-1"><mxGeometry x="870" y="140" width="60" height="80" as="geometry"/></mxCell><mxCell id="fYQJ-SwcIMSNfxXUZHLS-34" value="" style="rounded=0;orthogonalLoop=1;jettySize=auto;html=1;endArrow=halfCircle;endFill=0;endSize=6;strokeWidth=2;sketch=0;fontFamily=Helvetica;fontSize=17;edgeStyle=orthogonalEdgeStyle;exitX=1;exitY=0.5;exitDx=0;exitDy=0;" edge="1" parent="fYQJ-SwcIMSNfxXUZHLS-1" source="fYQJ-SwcIMSNfxXUZHLS-40" target="fYQJ-SwcIMSNfxXUZHLS-36"><mxGeometry relative="1" as="geometry"><mxPoint x="512.0000000000002" y="160" as="sourcePoint"/><mxPoint x="580" y="140" as="targetPoint"/><Array as="points"><mxPoint x="550" y="80"/><mxPoint x="550" y="110"/></Array></mxGeometry></mxCell><mxCell id="fYQJ-SwcIMSNfxXUZHLS-35" value="" style="rounded=0;orthogonalLoop=1;jettySize=auto;html=1;endArrow=none;endFill=0;sketch=0;sourcePerimeterSpacing=0;targetPerimeterSpacing=0;fontFamily=Helvetica;fontSize=17;strokeWidth=2;edgeStyle=orthogonalEdgeStyle;exitX=0;exitY=0.25;exitDx=0;exitDy=0;" edge="1" parent="fYQJ-SwcIMSNfxXUZHLS-1" source="fYQJ-SwcIMSNfxXUZHLS-29" target="fYQJ-SwcIMSNfxXUZHLS-36"><mxGeometry relative="1" as="geometry"><mxPoint x="680" y="130" as="sourcePoint"/><mxPoint x="620" y="110" as="targetPoint"/><Array as="points"/></mxGeometry></mxCell><mxCell id="fYQJ-SwcIMSNfxXUZHLS-36" value="" style="ellipse;whiteSpace=wrap;html=1;align=center;aspect=fixed;resizable=0;points=[];outlineConnect=0;sketch=0;fontFamily=Helvetica;fontSize=17;strokeWidth=2;" vertex="1" parent="fYQJ-SwcIMSNfxXUZHLS-1"><mxGeometry x="596" y="105" width="10" height="10" as="geometry"/></mxCell><mxCell id="fYQJ-SwcIMSNfxXUZHLS-40" value="&lt;span style=&quot;font-size: 17px;&quot;&gt;&lt;b&gt;interview-helper-web&lt;/b&gt;&lt;/span&gt;&lt;span style=&quot;font-size: 17px;&quot;&gt;&lt;b&gt;&lt;br&gt;&lt;/b&gt;&lt;/span&gt;" style="rounded=0;whiteSpace=wrap;html=1;strokeWidth=2;fillColor=#dae8fc;strokeColor=#6c8ebf;" vertex="1" parent="fYQJ-SwcIMSNfxXUZHLS-1"><mxGeometry x="280" y="40" width="220" height="80" as="geometry"/></mxCell><mxCell id="fYQJ-SwcIMSNfxXUZHLS-41" value="&lt;span style=&quot;font-size: 17px;&quot;&gt;&lt;b&gt;interview-helper-bot-telegram&lt;/b&gt;&lt;/span&gt;&lt;span style=&quot;font-size: 17px;&quot;&gt;&lt;b&gt;&lt;br&gt;&lt;/b&gt;&lt;/span&gt;" style="rounded=0;whiteSpace=wrap;html=1;strokeWidth=2;fillColor=#e1d5e7;strokeColor=#9673a6;" vertex="1" parent="fYQJ-SwcIMSNfxXUZHLS-1"><mxGeometry x="280" y="140" width="220" height="80" as="geometry"/></mxCell><mxCell id="fYQJ-SwcIMSNfxXUZHLS-42" value="" style="rounded=0;orthogonalLoop=1;jettySize=auto;html=1;endArrow=none;endFill=0;sketch=0;sourcePerimeterSpacing=0;targetPerimeterSpacing=0;fontFamily=Helvetica;fontSize=17;strokeWidth=2;edgeStyle=orthogonalEdgeStyle;exitX=0;exitY=0.25;exitDx=0;exitDy=0;" edge="1" parent="fYQJ-SwcIMSNfxXUZHLS-1" target="fYQJ-SwcIMSNfxXUZHLS-43"><mxGeometry relative="1" as="geometry"><mxPoint x="680" y="150" as="sourcePoint"/><mxPoint x="620" y="150" as="targetPoint"/><Array as="points"/></mxGeometry></mxCell><mxCell id="fYQJ-SwcIMSNfxXUZHLS-43" value="" style="ellipse;whiteSpace=wrap;html=1;align=center;aspect=fixed;resizable=0;points=[];outlineConnect=0;sketch=0;fontFamily=Helvetica;fontSize=17;strokeWidth=2;" vertex="1" parent="fYQJ-SwcIMSNfxXUZHLS-1"><mxGeometry x="596" y="145" width="10" height="10" as="geometry"/></mxCell><mxCell id="fYQJ-SwcIMSNfxXUZHLS-44" value="" style="rounded=0;orthogonalLoop=1;jettySize=auto;html=1;endArrow=halfCircle;endFill=0;endSize=6;strokeWidth=2;sketch=0;fontFamily=Helvetica;fontSize=17;edgeStyle=orthogonalEdgeStyle;exitX=1;exitY=0.5;exitDx=0;exitDy=0;" edge="1" parent="fYQJ-SwcIMSNfxXUZHLS-1" source="fYQJ-SwcIMSNfxXUZHLS-41" target="fYQJ-SwcIMSNfxXUZHLS-43"><mxGeometry relative="1" as="geometry"><mxPoint x="510" y="80" as="sourcePoint"/><mxPoint x="610" y="150" as="targetPoint"/><Array as="points"><mxPoint x="550" y="180"/><mxPoint x="550" y="150"/></Array></mxGeometry></mxCell></root></mxGraphModel></diagram></mxfile>